<svg width="180" height="32" viewBox="0 0 3508 625" fill="none" xmlns="http://www.w3.org/2000/svg">
<rect y="329.546" width="400" height="69.7674" fill="#FF6122"/>
<g clip-path="url(#clip0_824_152)">
<mask id="mask0_824_152" style="mask-type:alpha" maskUnits="userSpaceOnUse" x="0" y="425" width="400" height="235">
<path d="M0 659.5H400V425.5H0V659.5Z" fill="white"/>
</mask>
<g mask="url(#mask0_824_152)">
<path d="M200.5 -291.615C-30.1422 -291.615 -217.115 -104.642 -217.115 126C-217.115 356.642 -30.1422 543.615 200.5 543.615C431.143 543.615 618.115 356.642 618.115 126C618.115 -104.642 431.143 -291.615 200.5 -291.615Z" stroke="#FF6122" stroke-width="69.77"/>
</g>
</g>
<g clip-path="url(#clip1_824_152)">
<mask id="mask1_824_152" style="mask-type:alpha" maskUnits="userSpaceOnUse" x="0" y="69" width="400" height="235">
<path d="M400 69.5H0V303.5H400V69.5Z" fill="white"/>
</mask>
<g mask="url(#mask1_824_152)">
<path d="M199.5 1020.61C430.142 1020.61 617.115 833.642 617.115 603C617.115 372.357 430.142 185.385 199.5 185.385C-31.1426 185.385 -218.115 372.357 -218.115 603C-218.115 833.642 -31.1426 1020.61 199.5 1020.61Z" stroke="#FF6122" stroke-width="69.77"/>
</g>
</g>
<path d="M623.454 520.15C591.123 520.15 564.801 512.139 544.487 496.117C524.173 480.094 513.301 458.493 511.871 431.312H571.954C573.957 444.187 579.536 454.058 588.692 460.925C598.133 467.506 610.579 470.796 626.029 470.796C638.904 470.796 648.775 468.364 655.642 463.5C662.794 458.35 666.371 451.054 666.371 441.613C666.371 427.307 656.643 418.008 637.187 413.717L590.408 403.846C543.2 393.546 519.596 369.942 519.596 333.033C519.596 308.714 528.751 289.258 547.062 274.667C565.373 259.789 589.264 252.35 618.733 252.35C648.203 252.35 672.379 259.932 691.262 275.096C710.146 290.26 720.446 310.86 722.162 336.896H662.079C659.79 324.879 654.64 315.724 646.629 309.429C638.618 303.135 628.175 299.987 615.3 299.987C603.855 299.987 594.7 302.419 587.833 307.283C580.967 311.861 577.533 318.585 577.533 327.454C577.533 333.749 579.822 339.042 584.4 343.333C588.978 347.339 595.844 350.343 605 352.346L653.067 362.646C676.814 367.796 694.696 376.379 706.712 388.396C718.729 400.126 724.737 416.149 724.737 436.462C724.737 462.212 715.582 482.669 697.271 497.833C679.246 512.711 654.64 520.15 623.454 520.15ZM827.134 515C810.826 515 798.094 510.708 788.938 502.125C779.782 493.542 775.205 480.524 775.205 463.071V307.283H734.005V257.5H775.634V180.25H836.576V257.5H891.938V307.283H837.434V465.217H897.517V515H827.134ZM997.178 519.721C971.142 519.721 950.112 512.425 934.09 497.833C918.354 483.242 910.486 464.072 910.486 440.325C910.486 415.433 918.783 396.121 935.378 382.388C952.258 368.654 975.862 361.787 1006.19 361.787H1072.28V350.629C1072.28 335.751 1067.99 324.164 1059.41 315.867C1051.11 307.569 1039.52 303.421 1024.64 303.421C1012.06 303.421 1001.61 306.282 993.315 312.004C985.018 317.726 979.582 326.024 977.007 336.896H913.919C918.783 310.001 930.943 289.258 950.399 274.667C969.854 259.789 994.603 252.35 1024.64 252.35C1058.41 252.35 1084.58 261.076 1103.18 278.529C1122.07 295.982 1131.51 320.588 1131.51 352.346V515H1073.57V476.375H1071.85C1064.99 490.108 1054.97 500.837 1041.81 508.562C1028.94 516.001 1014.06 519.721 997.178 519.721ZM1010.48 470.367C1022.21 470.367 1032.66 467.792 1041.81 462.642C1051.25 457.492 1058.69 450.482 1064.13 441.613C1069.56 432.457 1072.28 422.157 1072.28 410.712V405.133H1009.19C996.606 405.133 986.735 407.994 979.582 413.717C972.715 419.439 969.282 427.307 969.282 437.321C969.282 447.621 973.001 455.775 980.44 461.783C987.879 467.506 997.893 470.367 1010.48 470.367ZM1182.85 515V257.5H1243.37V296.554H1245.08C1252.52 282.535 1262.82 271.806 1275.98 264.367C1289.43 256.642 1304.88 252.779 1322.33 252.779C1341.22 252.779 1357.67 257.357 1371.69 266.512C1385.99 275.668 1397.15 288.257 1405.16 304.279C1413.17 320.301 1417.18 338.756 1417.18 359.642V515H1354.95V371.658C1354.95 352.203 1350.08 337.039 1340.36 326.167C1330.63 315.008 1317.18 309.429 1300.02 309.429C1283.13 309.429 1269.69 315.008 1259.67 326.167C1249.95 337.039 1245.08 352.203 1245.08 371.658V515H1182.85ZM1561.36 520.15C1540.19 520.15 1521.45 514.571 1505.14 503.412C1489.11 491.968 1476.67 476.232 1467.8 456.204C1458.93 435.89 1454.5 412.572 1454.5 386.25C1454.5 359.642 1458.93 336.324 1467.8 316.296C1476.67 295.982 1489.11 280.246 1505.14 269.087C1521.45 257.929 1540.19 252.35 1561.36 252.35C1595.98 252.35 1620.44 266.513 1634.75 294.837H1636.46V154.5H1698.69V515H1638.18V476.375H1636.46C1621.58 505.558 1596.55 520.15 1561.36 520.15ZM1578.52 464.787C1596.84 464.787 1611 458.922 1621.01 447.192C1631.31 435.461 1636.46 419.725 1636.46 399.983V372.517C1636.46 352.775 1631.31 337.039 1621.01 325.308C1611 313.578 1596.84 307.712 1578.52 307.712C1559.64 307.712 1544.62 314.865 1533.46 329.171C1522.3 343.19 1516.72 362.217 1516.72 386.25C1516.72 410.283 1522.3 429.453 1533.46 443.758C1544.62 457.778 1559.64 464.787 1578.52 464.787ZM1821.9 519.721C1795.87 519.721 1774.84 512.425 1758.81 497.833C1743.08 483.242 1735.21 464.072 1735.21 440.325C1735.21 415.433 1743.51 396.121 1760.1 382.388C1776.98 368.654 1800.59 361.787 1830.91 361.787H1897.01V350.629C1897.01 335.751 1892.71 324.164 1884.13 315.867C1875.83 307.569 1864.25 303.421 1849.37 303.421C1836.78 303.421 1826.34 306.282 1818.04 312.004C1809.74 317.726 1804.31 326.024 1801.73 336.896H1738.64C1743.51 310.001 1755.67 289.258 1775.12 274.667C1794.58 259.789 1819.33 252.35 1849.37 252.35C1883.13 252.35 1909.31 261.076 1927.91 278.529C1946.79 295.982 1956.23 320.588 1956.23 352.346V515H1898.29V476.375H1896.58C1889.71 490.108 1879.7 500.837 1866.54 508.562C1853.66 516.001 1838.78 519.721 1821.9 519.721ZM1835.21 470.367C1846.94 470.367 1857.38 467.792 1866.54 462.642C1875.98 457.492 1883.42 450.482 1888.85 441.613C1894.29 432.457 1897.01 422.157 1897.01 410.712V405.133H1833.92C1821.33 405.133 1811.46 407.994 1804.31 413.717C1797.44 419.439 1794.01 427.307 1794.01 437.321C1794.01 447.621 1797.73 455.775 1805.16 461.783C1812.6 467.506 1822.62 470.367 1835.21 470.367ZM2011.87 515V257.5H2071.52V302.992H2073.24C2078.96 288.4 2087.83 276.812 2099.85 268.229C2111.86 259.36 2126.31 254.925 2143.19 254.925H2163.79V309.858H2140.19C2117.87 309.858 2101.28 316.582 2090.41 330.029C2079.53 343.476 2074.1 361.358 2074.1 383.675V515H2011.87ZM2274.43 520.15C2253.26 520.15 2234.52 514.571 2218.21 503.412C2202.19 491.968 2189.74 476.232 2180.87 456.204C2172 435.89 2167.57 412.572 2167.57 386.25C2167.57 359.642 2172 336.324 2180.87 316.296C2189.74 295.982 2202.19 280.246 2218.21 269.087C2234.52 257.929 2253.26 252.35 2274.43 252.35C2309.05 252.35 2333.51 266.513 2347.82 294.837H2349.54V154.5H2411.76V515H2351.25V476.375H2349.54C2334.66 505.558 2309.62 520.15 2274.43 520.15ZM2291.6 464.787C2309.91 464.787 2324.07 458.922 2334.09 447.192C2344.39 435.461 2349.54 419.725 2349.54 399.983V372.517C2349.54 352.775 2344.39 337.039 2334.09 325.308C2324.07 313.578 2309.91 307.712 2291.6 307.712C2272.71 307.712 2257.69 314.865 2246.54 329.171C2235.38 343.19 2229.8 362.217 2229.8 386.25C2229.8 410.283 2235.38 429.453 2246.54 443.758C2257.69 457.778 2272.71 464.787 2291.6 464.787ZM2455.58 515L2512.23 288.4H2462.88L2470.6 257.5H2520.38L2536.26 193.125C2539.41 180.25 2545.28 170.665 2553.86 164.371C2562.44 157.79 2572.74 154.5 2584.76 154.5H2649.13L2641.41 185.4H2576.18L2558.15 257.5H2618.23L2610.51 288.4H2550.85L2494.2 515H2455.58ZM2694.92 520.15C2670.6 520.15 2650.57 514.285 2634.84 502.554C2619.1 490.824 2608.52 474.658 2603.08 454.058C2597.93 433.172 2598.79 409.282 2605.65 382.388C2612.23 356.351 2622.82 333.606 2637.41 314.15C2652 294.694 2669.17 279.531 2688.91 268.658C2708.94 257.786 2730.4 252.35 2753.29 252.35C2777.89 252.35 2798.06 258.215 2813.8 269.946C2829.54 281.39 2839.98 297.412 2845.13 318.012C2850.28 338.612 2849.42 362.646 2842.55 390.112C2835.97 416.149 2825.39 439.037 2810.8 458.779C2796.49 478.235 2779.32 493.399 2759.3 504.271C2739.55 514.857 2718.1 520.15 2694.92 520.15ZM2699.21 484.958C2723.82 484.958 2745.71 476.089 2764.88 458.35C2784.04 440.325 2797.35 416.292 2804.79 386.25C2812.23 356.208 2810.8 332.318 2800.5 314.579C2790.48 296.554 2773.17 287.542 2748.57 287.542C2724.25 287.542 2702.5 296.554 2683.33 314.579C2664.16 332.318 2650.86 356.208 2643.42 386.25C2635.98 416.578 2637.27 440.611 2647.28 458.35C2657.3 476.089 2674.61 484.958 2699.21 484.958ZM2868.6 515L2932.97 257.5H2969.45L2955.72 312.004H2957.44C2967.45 295.124 2980.47 281.533 2996.49 271.233C3012.8 260.933 3030.82 255.783 3050.57 255.783H3069.02L3060.44 290.117H3039.84C3015.52 290.117 2994.63 298.128 2977.18 314.15C2960.01 330.172 2948 351.917 2941.13 379.383L2907.22 515H2868.6ZM3045.65 515L3110.03 257.5H3148.65L3137.92 300.417H3139.64C3160.24 268.658 3187.7 252.779 3222.04 252.779C3240.64 252.779 3255.8 257.214 3267.53 266.083C3279.55 274.953 3287.13 287.542 3290.28 303.85H3291.56C3316.45 269.803 3346.78 252.779 3382.55 252.779C3400.86 252.779 3416.02 257.357 3428.04 266.512C3440.05 275.668 3448.07 288.114 3452.07 303.85C3456.36 319.586 3455.93 337.611 3450.78 357.925L3411.3 515H3372.68L3411.73 359.212C3417.45 336.896 3416.31 319.443 3408.3 306.854C3400.29 294.265 3386.55 287.971 3367.1 287.971C3347.64 287.971 3330.76 294.265 3316.45 306.854C3302.44 319.443 3292.56 336.896 3286.84 359.212L3247.79 515H3209.16L3248.22 359.212C3253.94 336.896 3252.8 319.443 3244.78 306.854C3236.77 294.265 3223.04 287.971 3203.58 287.971C3184.13 287.971 3167.25 294.265 3152.94 306.854C3138.92 319.443 3129.05 336.896 3123.33 359.212L3084.28 515H3045.65Z" fill="#212121"/>
<defs>
<clipPath id="clip0_824_152">
<rect width="400" height="127" fill="white" transform="matrix(-1 0 0 -1 400 578.5)"/>
</clipPath>
<clipPath id="clip1_824_152">
<rect width="400" height="127" fill="white" transform="translate(0 150.5)"/>
</clipPath>
</defs>
</svg>
